<?xml version="1.0" encoding="utf-8"?>
<!-- Generator: Adobe Illustrator 27.2.0, SVG Export Plug-In . SVG Version: 6.00 Build 0)  -->
<svg version="1.1" id="Layer_1" xmlns="http://www.w3.org/2000/svg" xmlns:xlink="http://www.w3.org/1999/xlink" x="0px" y="0px"
	 viewBox="0 0 340.2 283.5" style="enable-background:new 0 0 340.2 283.5;" xml:space="preserve">
<style type="text/css">
	.st0{fill:none;stroke:#221F1F;stroke-width:1.000000e-03;stroke-linecap:round;stroke-linejoin:round;stroke-miterlimit:11.3386;}
	.st1{fill:none;stroke:#010101;stroke-width:1.000000e-03;stroke-linecap:round;stroke-linejoin:round;stroke-miterlimit:11.3386;}
</style>
<g id="p-4">
	<path class="st0" d="M12.5,275.5h23.4c0.1,0,0.2-0.1,0.2-0.2V267c0-0.2-0.2,0,0,0h12.4c0.2,0,0-0.2,0,0v8.3c0,0.1,0.1,0.2,0.2,0.2
		h12.8c0.1,0,0.2-0.1,0.2-0.2V267c0-0.2-0.2,0,0,0h12.4c0.2,0,0-0.2,0,0v8.3c0,0.1,0.1,0.2,0.2,0.2h12.8c0.1,0,0.2-0.1,0.2-0.2V267
		c0-0.2-0.2,0,0,0h12.4c0.2,0,0-0.2,0,0v8.3c0,0.1,0.1,0.2,0.2,0.2h12.8c0.1,0,0.2-0.1,0.2-0.2V267c0-0.2-0.2,0,0,0H125
		c0.2,0,0-0.2,0,0v8.3c0,0.1,0.1,0.2,0.2,0.2h12.8c0.1,0,0.2-0.1,0.2-0.2V267c0-0.2-0.2,0,0,0h12.4c0.2,0,0-0.2,0,0v8.3
		c0,0.1,0.1,0.2,0.2,0.2h12.8c0.1,0,0.2-0.1,0.2-0.2V267c0-0.2-0.2,0,0,0H176c0.2,0,0-0.2,0,0v8.3c0,0.1,0.1,0.2,0.2,0.2h12.8
		c0.1,0,0.2-0.1,0.2-0.2V267c0-0.2-0.2,0,0,0h12.4c0.2,0,0-0.2,0,0v8.3c0,0.1,0.1,0.2,0.2,0.2h12.8c0.1,0,0.2-0.1,0.2-0.2V267
		c0-0.2-0.2,0,0,0H227c0.2,0,0-0.2,0,0v8.3c0,0.1,0.1,0.2,0.2,0.2H240c0.1,0,0.2-0.1,0.2-0.2V267c0-0.2-0.2,0,0,0h12.4
		c0.2,0,0-0.2,0,0v8.3c0,0.1,0.1,0.2,0.2,0.2h12.8c0.1,0,0.2-0.1,0.2-0.2V267c0-0.2-0.2,0,0,0H278c0.2,0,0-0.2,0,0v8.3
		c0,0.1,0.1,0.2,0.2,0.2H291c0.1,0,0.2-0.1,0.2-0.2V267c0-0.2-0.2,0,0,0h12.4c0.2,0,0-0.2,0,0v8.3c0,0.1,0.1,0.2,0.2,0.2h23.4h8.5
		c0.1,0,0.2-0.1,0.2-0.2v-8.5v-29.1c0-0.1-0.1-0.2-0.2-0.2h-8.3c-0.2,0,0,0.2,0,0v-12.4c0-0.2-0.2,0,0,0h8.3c0.1,0,0.2-0.1,0.2-0.2
		v-12.8c0-0.1-0.1-0.2-0.2-0.2h-8.3c-0.2,0,0,0.2,0,0v-12.4c0-0.2-0.2,0,0,0h8.3c0.1,0,0.2-0.1,0.2-0.2v-12.8c0-0.1-0.1-0.2-0.2-0.2
		h-8.3c-0.2,0,0,0.2,0,0v-12.4c0-0.2-0.2,0,0,0h8.3c0.1,0,0.2-0.1,0.2-0.2v-12.8c0-0.1-0.1-0.2-0.2-0.2h-8.3c-0.2,0,0,0.2,0,0v-12.4
		c0-0.2-0.2,0,0,0h8.3c0.1,0,0.2-0.1,0.2-0.2v-12.8c0-0.1-0.1-0.2-0.2-0.2h-8.3c-0.2,0,0,0.2,0,0v-12.4c0-0.2-0.2,0,0,0h8.3
		c0.1,0,0.2-0.1,0.2-0.2v-12.8c0-0.1-0.1-0.2-0.2-0.2h-8.3c-0.2,0,0,0.2,0,0V97.7c0-0.2-0.2,0,0,0h8.3c0.1,0,0.2-0.1,0.2-0.2V84.7
		c0-0.1-0.1-0.2-0.2-0.2h-8.3c-0.2,0,0,0.2,0,0V72.1c0-0.2-0.2,0,0,0h8.3c0.1,0,0.2-0.1,0.2-0.2V59.2c0-0.1-0.1-0.2-0.2-0.2h-8.3
		c-0.2,0,0,0.2,0,0V46.6c0-0.2-0.2,0,0,0h8.3c0.1,0,0.2-0.1,0.2-0.2V17.4V8.9c0-0.1-0.1-0.2-0.2-0.2h-8.5h-23.4
		c-0.1,0-0.2,0.1-0.2,0.2v8.3c0,0.2,0.2,0,0,0h-12.4c-0.2,0,0,0.2,0,0V8.9c0-0.1-0.1-0.2-0.2-0.2h-12.8c-0.1,0-0.2,0.1-0.2,0.2v8.3
		c0,0.2,0.2,0,0,0h-12.4c-0.2,0,0,0.2,0,0V8.9c0-0.1-0.1-0.2-0.2-0.2h-12.8c-0.1,0-0.2,0.1-0.2,0.2v8.3c0,0.2,0.2,0,0,0h-12.4
		c-0.2,0,0,0.2,0,0V8.9c0-0.1-0.1-0.2-0.2-0.2h-12.8c-0.1,0-0.2,0.1-0.2,0.2v8.3c0,0.2,0.2,0,0,0h-12.4c-0.2,0,0,0.2,0,0V8.9
		c0-0.1-0.1-0.2-0.2-0.2h-12.8c-0.1,0-0.2,0.1-0.2,0.2v8.3c0,0.2,0.2,0,0,0h-12.4c-0.2,0,0,0.2,0,0V8.9c0-0.1-0.1-0.2-0.2-0.2h-12.8
		c-0.1,0-0.2,0.1-0.2,0.2v8.3c0,0.2,0.2,0,0,0h-12.4c-0.2,0,0,0.2,0,0V8.9c0-0.1-0.1-0.2-0.2-0.2h-12.8c-0.1,0-0.2,0.1-0.2,0.2v8.3
		c0,0.2,0.2,0,0,0h-12.4c-0.2,0,0,0.2,0,0V8.9c0-0.1-0.1-0.2-0.2-0.2h-12.8c-0.1,0-0.2,0.1-0.2,0.2v8.3c0,0.2,0.2,0,0,0h-12.4
		c-0.2,0,0,0.2,0,0V8.9c0-0.1-0.1-0.2-0.2-0.2H99.6c-0.1,0-0.2,0.1-0.2,0.2v8.3c0,0.2,0.2,0,0,0H87.1c-0.2,0,0,0.2,0,0V8.9
		c0-0.1-0.1-0.2-0.2-0.2H74.1c-0.1,0-0.2,0.1-0.2,0.2v8.3c0,0.2,0.2,0,0,0H61.6c-0.2,0,0,0.2,0,0V8.9c0-0.1-0.1-0.2-0.2-0.2H48.6
		c-0.1,0-0.2,0.1-0.2,0.2v8.3c0,0.2,0.2,0,0,0H36.1c-0.2,0,0,0.2,0,0V8.9c0-0.1-0.1-0.2-0.2-0.2H12.5H4c-0.1,0-0.2,0.1-0.2,0.2v8.5
		v29.1c0,0.1,0.1,0.2,0.2,0.2h8.3c0.2,0,0-0.2,0,0V59c0,0.2,0.2,0,0,0H4c-0.1,0-0.2,0.1-0.2,0.2v12.8c0,0.1,0.1,0.2,0.2,0.2h8.3
		c0.2,0,0-0.2,0,0v12.4c0,0.2,0.2,0,0,0H4c-0.1,0-0.2,0.1-0.2,0.2v12.8c0,0.1,0.1,0.2,0.2,0.2h8.3c0.2,0,0-0.2,0,0V110
		c0,0.2,0.2,0,0,0H4c-0.1,0-0.2,0.1-0.2,0.2V123c0,0.1,0.1,0.2,0.2,0.2h8.3c0.2,0,0-0.2,0,0v12.4c0,0.2,0.2,0,0,0H4
		c-0.1,0-0.2,0.1-0.2,0.2v12.8c0,0.1,0.1,0.2,0.2,0.2h8.3c0.2,0,0-0.2,0,0V161c0,0.2,0.2,0,0,0H4c-0.1,0-0.2,0.1-0.2,0.2V174
		c0,0.1,0.1,0.2,0.2,0.2h8.3c0.2,0,0-0.2,0,0v12.4c0,0.2,0.2,0,0,0H4c-0.1,0-0.2,0.1-0.2,0.2v12.8c0,0.1,0.1,0.2,0.2,0.2h8.3
		c0.2,0,0-0.2,0,0v12.4c0,0.2,0.2,0,0,0H4c-0.1,0-0.2,0.1-0.2,0.2V225c0,0.1,0.1,0.2,0.2,0.2h8.3c0.2,0,0-0.2,0,0v12.4
		c0,0.2,0.2,0,0,0H4c-0.1,0-0.2,0.1-0.2,0.2v29.1v8.5c0,0.1,0.1,0.2,0.2,0.2H12.5z"/>
	<g>
		<circle class="st1" cx="299" cy="238.6" r="4.2"/>
		<ellipse class="st1" cx="299" cy="45.7" rx="4.3" ry="4.2"/>
		<ellipse class="st1" cx="38.1" cy="141.9" rx="4.2" ry="4.3"/>
	</g>
</g>
</svg>
