<?xml version="1.0" encoding="utf-8"?>
<!-- Generator: Adobe Illustrator 27.2.0, SVG Export Plug-In . SVG Version: 6.00 Build 0)  -->
<svg version="1.1" id="Layer_1" xmlns="http://www.w3.org/2000/svg" xmlns:xlink="http://www.w3.org/1999/xlink" x="0px" y="0px"
	 viewBox="0 0 340.2 382.7" style="enable-background:new 0 0 340.2 382.7;" xml:space="preserve">
<style type="text/css">
	.st0{fill:none;stroke:#231F20;stroke-width:2.834646e-03;stroke-linecap:round;stroke-linejoin:round;stroke-miterlimit:11.3386;}
	.st1{fill:none;}
	.st2{fill:#010101;}
	.st3{font-family:'Arial-Black';}
	.st4{font-size:11.3386px;}
	.st5{fill:none;stroke:#010101;stroke-width:2.834646e-03;stroke-linecap:round;stroke-miterlimit:10;}
	.st6{fill:none;stroke:#010101;stroke-width:1.4173;stroke-linecap:round;stroke-miterlimit:10;}
	.st7{font-size:14.1732px;}
	.st8{fill:#FFFFFF;stroke:#231F20;stroke-width:1.4173;stroke-miterlimit:10;}
	.st9{fill:none;stroke:#231F20;stroke-width:0.5669;stroke-linecap:round;stroke-linejoin:round;stroke-miterlimit:11.3386;}
	.st10{fill:none;stroke:#231F20;stroke-width:2.2677;stroke-miterlimit:10;}
	.st11{fill:none;stroke:#010101;stroke-width:2.834646e-03;stroke-miterlimit:10;}
	.st12{fill:none;stroke:#000000;stroke-width:2.834646e-03;stroke-miterlimit:10;}
	.st13{font-size:8.5039px;}
	.st14{fill:none;stroke:#010101;stroke-width:2.834646e-03;stroke-linecap:round;stroke-linejoin:round;stroke-miterlimit:11.3386;}
</style>
<g>
	<path class="st0" d="M32.8,217.3h-6.2c-0.2,0,0,0.2,0,0v-8.1c0-0.2-0.2,0,0,0H49c0.2,0,0-0.2,0,0v8.1c0,0.2,0.2,0,0,0H32.8z"/>
	<path class="st0" d="M296.6,209.2h16.2c0.2,0,0-0.2,0,0v8.1c0,0.2,0.2,0,0,0h-22.4c-0.2,0,0,0.2,0,0v-8.1c0-0.2-0.2,0,0,0H296.6z"
		/>
	<path class="st0" d="M335.5,219.9c0.1,0,0.2-0.1,0.2-0.2v-24.8c0-0.1-0.1-0.2-0.2-0.2H327H60.4H54H41.6H29H12.4H3.9
		c-0.1,0-0.2,0.1-0.2,0.2v24.8c0,0.1,0.1,0.2,0.2,0.2h8.3v12.4H3.9c-0.1,0-0.2,0.1-0.2,0.2v12.8c0,0.1,0.1,0.2,0.2,0.2h8.3v12.4H3.9
		c-0.1,0-0.2,0.1-0.2,0.2v14.8c0,0.1,0.1,0.2,0.2,0.2h8.5h23.2v8.3c0,0.1,0.1,0.2,0.2,0.2h12.8c0.1,0,0.2-0.1,0.2-0.2V273h12.4v8.3
		c0,0.1,0.1,0.2,0.2,0.2H74c0.1,0,0.2-0.1,0.2-0.2V273h12.4v8.3c0,0.1,0.1,0.2,0.2,0.2h12.8c0.1,0,0.2-0.1,0.2-0.2V273h12.4v8.3
		c0,0.1,0.1,0.2,0.2,0.2h12.8c0.1,0,0.2-0.1,0.2-0.2V273h12.4v8.3c0,0.1,0.1,0.2,0.2,0.2h12.8c0.1,0,0.2-0.1,0.2-0.2V273h12.4v8.3
		c0,0.1,0.1,0.2,0.2,0.2h12.8c0.1,0,0.2-0.1,0.2-0.2V273h12.4v8.3c0,0.1,0.1,0.2,0.2,0.2h12.8c0.1,0,0.2-0.1,0.2-0.2V273h12.4v8.3
		c0,0.1,0.1,0.2,0.2,0.2h12.8c0.1,0,0.2-0.1,0.2-0.2V273h12.4v8.3c0,0.1,0.1,0.2,0.2,0.2h12.8c0.1,0,0.2-0.1,0.2-0.2V273h12.4v8.3
		c0,0.1,0.1,0.2,0.2,0.2h12.8c0.1,0,0.2-0.1,0.2-0.2V273h12.4v8.3c0,0.1,0.1,0.2,0.2,0.2h12.8c0.1,0,0.2-0.1,0.2-0.2V273H327h8.5
		c0.1,0,0.2-0.1,0.2-0.2V258c0-0.1-0.1-0.2-0.2-0.2h-8.3v-12.4h8.3c0.1,0,0.2-0.1,0.2-0.2v-12.8c0-0.1-0.1-0.2-0.2-0.2h-8.3v-12.4
		H335.5z"/>
</g>
<g>
	<path class="st0" d="M43.4,310.2H27.2c-0.2,0,0,0.2,0,0v-8.1c0-0.2-0.2,0,0,0h22.4c0.2,0,0-0.2,0,0v8.1c0,0.2,0.2,0,0,0H43.4z"/>
	<path class="st0" d="M297.2,302.1h16.2c0.2,0,0-0.2,0,0v8.1c0,0.2,0.2,0,0,0H291c-0.2,0,0,0.2,0,0v-8.1c0-0.2-0.2,0,0,0H297.2z"/>
	<path class="st0" d="M336.1,312.8c0.1,0,0.2-0.1,0.2-0.2v-24.8c0-0.1-0.1-0.2-0.2-0.2h-8.5H61h-6.4H42.2H29.6H13H4.5
		c-0.1,0-0.2,0.1-0.2,0.2v24.8c0,0.1,0.1,0.2,0.2,0.2h8.3v12.4H4.5c-0.1,0-0.2,0.1-0.2,0.2v12.8c0,0.1,0.1,0.2,0.2,0.2h8.3v12.4H4.5
		c-0.1,0-0.2,0.1-0.2,0.2v14.8c0,0.1,0.1,0.2,0.2,0.2H13h23.2v8.3c0,0.1,0.1,0.2,0.2,0.2h12.8c0.1,0,0.2-0.1,0.2-0.2v-8.3h12.4v8.3
		c0,0.1,0.1,0.2,0.2,0.2h12.8c0.1,0,0.2-0.1,0.2-0.2v-8.3h12.4v8.3c0,0.1,0.1,0.2,0.2,0.2h12.8c0.1,0,0.2-0.1,0.2-0.2v-8.3h12.4v8.3
		c0,0.1,0.1,0.2,0.2,0.2h12.8c0.1,0,0.2-0.1,0.2-0.2v-8.3h12.4v8.3c0,0.1,0.1,0.2,0.2,0.2h12.8c0.1,0,0.2-0.1,0.2-0.2v-8.3h12.4v8.3
		c0,0.1,0.1,0.2,0.2,0.2h12.8c0.1,0,0.2-0.1,0.2-0.2v-8.3h12.4v8.3c0,0.1,0.1,0.2,0.2,0.2h12.8c0.1,0,0.2-0.1,0.2-0.2v-8.3h12.4v8.3
		c0,0.1,0.1,0.2,0.2,0.2h12.8c0.1,0,0.2-0.1,0.2-0.2v-8.3h12.4v8.3c0,0.1,0.1,0.2,0.2,0.2h12.8c0.1,0,0.2-0.1,0.2-0.2v-8.3h12.4v8.3
		c0,0.1,0.1,0.2,0.2,0.2h12.8c0.1,0,0.2-0.1,0.2-0.2v-8.3h12.4v8.3c0,0.1,0.1,0.2,0.2,0.2h12.8c0.1,0,0.2-0.1,0.2-0.2v-8.3h23.2h8.5
		c0.1,0,0.2-0.1,0.2-0.2v-14.8c0-0.1-0.1-0.2-0.2-0.2h-8.3v-12.4h8.3c0.1,0,0.2-0.1,0.2-0.2v-12.8c0-0.1-0.1-0.2-0.2-0.2h-8.3v-12.4
		H336.1z"/>
</g>
<g>
	<path class="st0" d="M272,139.7c0.1,0,0.2-0.1,0.2-0.2v-12.8c0-0.1-0.1-0.2-0.2-0.2h-8.3V102c0-0.1-0.1-0.2-0.2-0.2H150v8.5
		c0.2,0,0,0.3,0,0h-11.2h-11.2c0,0.3-0.2,0,0,0v-8.5H14.1c-0.1,0-0.2,0.1-0.2,0.2v24.6H5.6c-0.1,0-0.2,0.1-0.2,0.2v12.8
		c0,0.1,0.1,0.2,0.2,0.2h8.3v12.4H5.6c-0.1,0-0.2,0.1-0.2,0.2v12.8c0,0.1,0.1,0.2,0.2,0.2h8.3v14.6c0,0.1,0.1,0.2,0.2,0.2h28.9v8.3
		c0,0.1,0.1,0.2,0.2,0.2h12.8c0.1,0,0.2-0.1,0.2-0.2v-8.3h12.4v8.3c0,0.1,0.1,0.2,0.2,0.2h12.8c0.1,0,0.2-0.1,0.2-0.2v-8.3h12.4v8.3
		c0,0.1,0.1,0.2,0.2,0.2h12.8c0.1,0,0.2-0.1,0.2-0.2v-8.3h12.4v8.3c0,0.1,0.1,0.2,0.2,0.2h12.8c0.1,0,0.2-0.1,0.2-0.2v-8.3H145v8.3
		c0,0.1,0.1,0.2,0.2,0.2h12.8c0.1,0,0.2-0.1,0.2-0.2v-8.3h12.4v8.3c0,0.1,0.1,0.2,0.2,0.2h12.8c0.1,0,0.2-0.1,0.2-0.2v-8.3H196v8.3
		c0,0.1,0.1,0.2,0.2,0.2h12.8c0.1,0,0.2-0.1,0.2-0.2v-8.3h12.4v8.3c0,0.1,0.1,0.2,0.2,0.2h12.8c0.1,0,0.2-0.1,0.2-0.2v-8.3h28.9
		c0.1,0,0.2-0.1,0.2-0.2v-14.6h8.3c0.1,0,0.2-0.1,0.2-0.2v-12.8c0-0.1-0.1-0.2-0.2-0.2h-8.3v-12.4H272z"/>
	<path class="st0" d="M143.8,124h-16.2c-0.2,0,0,0.2,0,0v-8.1c0-0.2-0.2,0,0,0H150c0.2,0,0-0.2,0,0v8.1c0,0.2,0.2,0,0,0H143.8z"/>
</g>
<g>
	<g>
		<path class="st0" d="M272.1,45.8c0.1,0,0.2-0.1,0.2-0.2V32.9c0-0.1-0.1-0.2-0.2-0.2h-8.3V8.1c0-0.1-0.1-0.2-0.2-0.2h-29.3v8.5
			c0.2,0,0,0.3,0,0H212c0,0.3-0.2,0,0,0V7.9H65.8v8.5c0.2,0,0,0.3,0,0H49.6h-6.2c0,0.3-0.2,0,0,0V7.9H14.2C14.1,7.9,14,8,14,8.1
			v24.6H5.7c-0.1,0-0.2,0.1-0.2,0.2v12.8c0,0.1,0.1,0.2,0.2,0.2H14v12.4H5.7c-0.1,0-0.2,0.1-0.2,0.2v12.8c0,0.1,0.1,0.2,0.2,0.2H14
			v14.6c0,0.1,0.1,0.2,0.2,0.2H43v8.3c0,0.1,0.1,0.2,0.2,0.2H56c0.1,0,0.2-0.1,0.2-0.2v-8.3h12.4v8.3c0,0.1,0.1,0.2,0.2,0.2h12.8
			c0.1,0,0.2-0.1,0.2-0.2v-8.3h12.4v8.3c0,0.1,0.1,0.2,0.2,0.2H107c0.1,0,0.2-0.1,0.2-0.2v-8.3h12.4v8.3c0,0.1,0.1,0.2,0.2,0.2h12.8
			c0.1,0,0.2-0.1,0.2-0.2v-8.3h12.4v8.3c0,0.1,0.1,0.2,0.2,0.2H158c0.1,0,0.2-0.1,0.2-0.2v-8.3h12.4v8.3c0,0.1,0.1,0.2,0.2,0.2h12.8
			c0.1,0,0.2-0.1,0.2-0.2v-8.3h12.4v8.3c0,0.1,0.1,0.2,0.2,0.2h12.8c0.1,0,0.2-0.1,0.2-0.2v-8.3h12.4v8.3c0,0.1,0.1,0.2,0.2,0.2
			h12.8c0.1,0,0.2-0.1,0.2-0.2v-8.3h28.9c0.1,0,0.2-0.1,0.2-0.2V71.3h8.3c0.1,0,0.2-0.1,0.2-0.2V58.4c0-0.1-0.1-0.2-0.2-0.2h-8.3
			V45.8H272.1z"/>
		<path class="st0" d="M228.1,21.9h6.2c0.2,0,0-0.2,0,0V30c0,0.2,0.2,0,0,0h-22.4c-0.2,0,0,0.2,0,0v-8.1c0-0.2-0.2,0,0,0H228.1z"/>
		<path class="st0" d="M49.5,30h-6.2c-0.2,0,0,0.2,0,0v-8.1c0-0.2-0.2,0,0,0h22.4c0.2,0,0-0.2,0,0V30c0,0.2,0.2,0,0,0H49.5z"/>
	</g>
</g>
<rect x="314.5" y="287.7" class="st1" width="13.3" height="78.2"/>
<text transform="matrix(0 -1 1 0 325.2456 353.2461)" class="st2 st3 st4">OUTPUT</text>
<rect x="313.5" y="194.7" class="st1" width="13.8" height="78.2"/>
<text transform="matrix(0 -1 1 0 324.4097 253.6729)" class="st2 st3 st4">INPUT</text>
<g>
	<circle class="st5" cx="73.5" cy="62.7" r="11.3"/>
	<circle class="st5" cx="204.2" cy="61.9" r="11.3"/>
	<line class="st6" x1="31.9" y1="47.8" x2="246.2" y2="47.8"/>
	<polyline class="st1" points="13.9,33.1 13.9,48.8 263.7,48.8 263.7,33.1 	"/>
	<text transform="matrix(1 0 0 1 79.3446 43.2192)" class="st2 st3 st7">MODULE NAME</text>
	<path class="st2" d="M43.2,51.1c-6.3,0-11.3,5.1-11.3,11.3S37,73.8,43.2,73.8s11.3-5.1,11.3-11.3S49.5,51.1,43.2,51.1z M43.2,72.4
		c-5.5,0-9.9-4.5-9.9-9.9s4.5-9.9,9.9-9.9s9.9,4.5,9.9,9.9S48.7,72.4,43.2,72.4z M43.9,61.1h-1.4v-5.7h1.4V61.1z M48.9,62.5
		c0,3.1-2.5,5.7-5.7,5.7c-3.1,0-5.7-2.5-5.7-5.7c0-2.4,1.5-4.4,3.5-5.2v1.6c-1.3,0.7-2.1,2.1-2.1,3.7c0,2.3,1.9,4.3,4.3,4.3
		c2.3,0,4.3-1.9,4.3-4.3c0-1.6-0.9-2.9-2.1-3.7v-1.6C47.4,58.1,48.9,60.1,48.9,62.5z"/>
	<path class="st8" d="M234.3,51.1c-6.3,0-11.3,5.1-11.3,11.3s5.1,11.3,11.3,11.3c6.3,0,11.3-5.1,11.3-11.3S240.6,51.1,234.3,51.1z
		 M223,64.5h6.8 M229.1,65.2v-6.8 M234.5,65.2v-6.8 M235.2,59.1h-6.8 M233.8,64.6h6.8 M239.8,65.3v-6.8 M239.8,59.2h5"/>
	<g>
		<g>
			<line class="st6" x1="138.8" y1="48.6" x2="138.8" y2="71.9"/>
			<g>
				<polygon class="st2" points="135.2,70.9 138.8,77 142.3,70.9 				"/>
			</g>
		</g>
	</g>
</g>
<rect x="244.3" y="101.8" class="st1" width="19.4" height="78.3"/>
<text transform="matrix(0 -1 1 0 258.0817 165.4814)" class="st2 st3 st4">PARAM.</text>
<path class="st9" d="M169.8,21.7"/>
<line class="st10" x1="320.3" y1="194.7" x2="320.3" y2="208.9"/>
<line class="st10" x1="320.3" y1="258.7" x2="320.3" y2="272.9"/>
<line class="st10" x1="320.3" y1="287.6" x2="320.3" y2="296.1"/>
<line class="st10" x1="320.3" y1="357.4" x2="320.3" y2="365.9"/>
<line class="st10" x1="254" y1="168.7" x2="254" y2="180.1"/>
<line class="st10" x1="254" y1="101.8" x2="254" y2="113.1"/>
<circle class="st11" cx="228" cy="248.1" r="8.5"/>
<path class="st12" d="M128.6,263.4H84.8c-0.3,0-0.6-0.3-0.6-0.6v-37.6c0-0.3,0.3-0.6,0.6-0.6h43.8c0.3,0,0.6,0.3,0.6,0.6v37.6
	C129.3,263.1,129,263.4,128.6,263.4z"/>
<path class="st12" d="M179.9,261.1h-25.3c-0.4,0-0.7-0.3-0.7-0.7v-29.8c0-0.4,0.3-0.7,0.7-0.7h25.3c0.4,0,0.7,0.3,0.7,0.7v29.8
	C180.5,260.8,180.2,261.1,179.9,261.1z"/>
<rect x="84.2" y="209" class="st1" width="45.1" height="8.5"/>
<text transform="matrix(1 0 0 1 93.7355 216.2908)" class="st2 st3 st13">DATA</text>
<rect x="205.5" y="209.8" class="st1" width="45.1" height="8.5"/>
<text transform="matrix(1 0 0 1 213.1404 217.1072)" class="st2 st3 st13">LOGIC</text>
<rect x="144.3" y="209" class="st1" width="45.1" height="8.5"/>
<text transform="matrix(1 0 0 1 155.9572 216.2908)" class="st2 st3 st13">EXT.</text>
<path class="st12" d="M131.2,354.7H87.5c-0.4,0-0.7-0.3-0.7-0.7v-37.5c0-0.4,0.3-0.7,0.7-0.7h43.7c0.4,0,0.7,0.3,0.7,0.7V354
	C131.8,354.4,131.5,354.7,131.2,354.7z"/>
<rect x="86.8" y="301.4" class="st1" width="45.1" height="8.5"/>
<text transform="matrix(1 0 0 1 96.3134 308.702)" class="st2 st3 st13">DATA</text>
<path class="st12" d="M77.5,354H53c-0.4,0-0.7-0.3-0.7-0.7v-29.9c0-0.4,0.3-0.7,0.7-0.7h24.5c0.4,0,0.7,0.3,0.7,0.7v29.9
	C78.1,353.7,77.8,354,77.5,354z"/>
<rect x="154.9" y="301.4" class="st1" width="45.1" height="8.5"/>
<text transform="matrix(1 0 0 1 167.5296 308.702)" class="st2 st3 st13">USB</text>
<rect x="205.5" y="218.3" class="st1" width="45.1" height="8.5"/>
<text transform="matrix(1 0 0 1 210.0701 225.6042)" class="st2 st3 st13">SIGNAL</text>
<rect x="222.2" y="302.2" class="st1" width="45.1" height="8.5"/>
<text transform="matrix(1 0 0 1 229.8131 309.4854)" class="st2 st3 st13">LOGIC</text>
<rect x="222.2" y="310.7" class="st1" width="45.1" height="8.5"/>
<text transform="matrix(1 0 0 1 226.7428 317.9824)" class="st2 st3 st13">SIGNAL</text>
<rect x="144.3" y="218.3" class="st1" width="45.1" height="8.5"/>
<text transform="matrix(1 0 0 1 160.2072 225.6042)" class="st2 st3 st13">DC</text>
<rect x="42.7" y="301.4" class="st1" width="45.1" height="8.5"/>
<text transform="matrix(1 0 0 1 54.3547 308.655)" class="st2 st3 st13">EXT.</text>
<rect x="42.7" y="310.7" class="st1" width="45.1" height="8.5"/>
<text transform="matrix(1 0 0 1 58.6047 317.9685)" class="st2 st3 st13">DC</text>
<circle class="st14" cx="88.8" cy="146.7" r="9.5"/>
<rect x="37.8" y="115.8" class="st1" width="101.9" height="8.3"/>
<text transform="matrix(1 0 0 1 66.0788 123.0117)" class="st2 st3 st13">PARAM. 1</text>
<rect x="43.9" y="157.7" class="st1" width="30.9" height="8.3"/>
<text transform="matrix(1 0 0 1 45.6736 164.9144)" class="st2 st3 st13">SLOW</text>
<rect x="102.2" y="157.7" class="st1" width="30.9" height="8.3"/>
<text transform="matrix(1 0 0 1 105.3376 164.9144)" class="st2 st3 st13">FAST</text>
<circle class="st14" cx="191.6" cy="146.7" r="8.5"/>
<rect x="143" y="136.1" class="st1" width="48.6" height="21.2"/>
<text transform="matrix(1 0 0 1 160.2017 149.7793)" class="st2 st3 st13">ON</text>
<rect x="194.1" y="136.1" class="st1" width="48.6" height="21.2"/>
<text transform="matrix(1 0 0 1 209.1938 149.7793)" class="st2 st3 st13">OFF</text>
<circle class="st11" cx="244.3" cy="341.5" r="8.5"/>
<path class="st12" d="M193,345.4h-31.1c-0.8,0-1.5-0.7-1.5-1.5v-25.4c0-0.8,0.7-1.5,1.5-1.5H193c0.8,0,1.5,0.7,1.5,1.5v25.4
	C194.5,344.7,193.8,345.4,193,345.4z"/>
<rect x="155.2" y="115.8" class="st1" width="72.8" height="8.3"/>
<text transform="matrix(1 0 0 1 168.8978 123.0117)" class="st2 st3 st13">PARAM. 2</text>
</svg>
