<?xml version="1.0" encoding="utf-8"?>
<!-- Generator: Adobe Illustrator 27.2.0, SVG Export Plug-In . SVG Version: 6.00 Build 0)  -->
<svg version="1.1" id="Layer_1" xmlns="http://www.w3.org/2000/svg" xmlns:xlink="http://www.w3.org/1999/xlink" x="0px" y="0px"
	 viewBox="0 0 340.2 255.1" style="enable-background:new 0 0 340.2 255.1;" xml:space="preserve">
<style type="text/css">
	.st0{fill:none;stroke:#010101;stroke-width:1.000000e-03;stroke-linecap:round;stroke-linejoin:round;stroke-miterlimit:11.3386;}
	.st1{fill:none;stroke:#231F20;stroke-width:1.000000e-03;stroke-linecap:round;stroke-linejoin:round;stroke-miterlimit:11.3386;}
</style>
<g>
	<circle class="st0" cx="40.7" cy="31" r="8.2"/>
	<circle class="st0" cx="40.7" cy="223.9" r="8.2"/>
	<circle class="st0" cx="301.5" cy="127.6" r="8.2"/>
	<path class="st1" d="M4.1,200.4c-0.1,0-0.2,0.1-0.2,0.2V223c0,0.1,0.1,0.2,0.2,0.2h8.3v29c0,0,0,0,0,0v0.2h29.1v0h230.7h13.1h20v0
		h22.2v-29.1h0v-13.2h0v-71.3h8.4c0.1,0,0.1-0.1,0.1-0.1v-22.6c0-0.1-0.1-0.1-0.1-0.1h-8.4V44.8h0V31.6h0l0-29h-0.2c0,0,0,0,0,0
		h-23.9h-5h-13.1v0H12.6c0,0,0,0,0,0h-0.2v0.2c0,0,0,0,0,0l0,29H4.1c-0.1,0-0.2,0.1-0.2,0.2v22.5c0,0.1,0.1,0.2,0.2,0.2h8.3l0,145.7
		H4.1z"/>
</g>
</svg>
