<?xml version="1.0" encoding="utf-8"?>
<!-- Generator: Adobe Illustrator 27.2.0, SVG Export Plug-In . SVG Version: 6.00 Build 0)  -->
<svg version="1.1" id="Layer_1" xmlns="http://www.w3.org/2000/svg" xmlns:xlink="http://www.w3.org/1999/xlink" x="0px" y="0px"
	 viewBox="0 0 283.5 113.4" style="enable-background:new 0 0 283.5 113.4;" xml:space="preserve">
<style type="text/css">
	.st0{fill:none;stroke:#231F20;stroke-width:2.834646e-03;stroke-linecap:round;stroke-linejoin:round;stroke-miterlimit:11.3386;}
	.st1{fill:none;stroke:#010101;stroke-width:2.834646e-03;stroke-linecap:round;stroke-linejoin:round;stroke-miterlimit:11.3386;}
	.st2{fill:none;stroke:#231F20;stroke-width:2.834646e-03;stroke-miterlimit:10;}
</style>
<g>
	<g>
		<path class="st0" d="M63.7,2.6c0-0.1-0.1-0.2-0.2-0.2l-22.8,0c-0.1,0-0.2,0.1-0.2,0.2v8.3l-29.1,0l0,14.1H3.2
			C3.1,25,3,25.1,3,25.2l0,22.8c0,0.1,0.1,0.2,0.2,0.2H8v0l261.6,0c0.1,0,0.2-0.1,0.2-0.2V25.2c0-0.1-0.1-0.2-0.2-0.2h-8.3V11.1
			c0,0,0,0,0,0v-0.2l-29,0V2.6c0-0.1-0.1-0.2-0.2-0.2l-22.8,0c-0.1,0-0.2,0.1-0.2,0.2v8.3l-145.4,0V2.6z"/>
	</g>
	<g>
		<circle class="st1" cx="232.9" cy="39.2" r="4.2"/>
		<ellipse class="st1" cx="40" cy="39.3" rx="4.2" ry="4.3"/>
	</g>
</g>
<g>
	<ellipse class="st1" cx="137.2" cy="65.8" rx="4.3" ry="4.2"/>
	<path class="st2" d="M270.7,54.5L9,54.5v0H4.2c-0.1,0-0.2,0.1-0.2,0.2v22.8c0,0.1,0.1,0.2,0.2,0.2h8.3v14.1h52.2h61.1v8.4
		c0,0.1,0.1,0.1,0.1,0.1h22.9c0.1,0,0.1-0.1,0.1-0.1v-8.4h61.1h52.2v-0.2c0,0,0,0,0,0V77.6l8.3,0c0.1,0,0.2-0.1,0.2-0.2V54.6
		C270.8,54.5,270.8,54.5,270.7,54.5z"/>
</g>
</svg>
